<svg xmlns="http://www.w3.org/2000/svg" viewBox="0 0 24 24" fill="currentColor" width="100" height="100">
  <path d="M18.7 6.2c-.4-.4-1-.4-1.4 0l-4.6 4.6-1.3-1.3c-.4-.4-1-.4-1.4 0s-.4 1 0 1.4l2 2c.2.2.5.3.7.3s.5-.1.7-.3l5.3-5.3c.4-.4.4-1 0-1.4z"/>
  <path d="M20.5 2.5c-3.2 0-5.8 2.6-5.8 5.8 0 1.4.5 2.7 1.3 3.7l-6.3 6.3c-.8.8-2.1.8-2.8 0l-3.5-3.5c-.8-.8-.8-2.1 0-2.8l6.3-6.3c-1-1.8-1.3-3.9.2-5.5C11.1.2 13.6 0 15.5 0c1.6 0 3.1.6 4.2 1.8 1.2 1.1 1.8 2.6 1.8 4.2zM15.5 2c-1.1 0-2.1.4-2.8 1.2-.8.8-1.2 1.8-1.2 2.8 0 1.1.4 2.1 1.2 2.8.8.8 1.8 1.2 2.8 1.2s2.1-.4 2.8-1.2c.8-.8 1.2-1.8 1.2-2.8 0-1.1-.4-2.1-1.2-2.8C17.6 2.4 16.6 2 15.5 2z"/>
</svg>
